<svg aria-roledescription="er" viewBox="0 0 208.39158630371094 496" style="max-width: 208.392px; background-color: white;" xmlns:xlink="http://www.w3.org/1999/xlink" xmlns="http://www.w3.org/2000/svg" width="100%" id="mermaid-0"><style>#mermaid-0{font-family:"trebuchet ms",verdana,arial,sans-serif;font-size:16px;fill:#000000;}#mermaid-0 .error-icon{fill:#552222;}#mermaid-0 .error-text{fill:#552222;stroke:#552222;}#mermaid-0 .edge-thickness-normal{stroke-width:2px;}#mermaid-0 .edge-thickness-thick{stroke-width:3.5px;}#mermaid-0 .edge-pattern-solid{stroke-dasharray:0;}#mermaid-0 .edge-pattern-dashed{stroke-dasharray:3;}#mermaid-0 .edge-pattern-dotted{stroke-dasharray:2;}#mermaid-0 .marker{fill:#000000;stroke:#000000;}#mermaid-0 .marker.cross{stroke:#000000;}#mermaid-0 svg{font-family:"trebuchet ms",verdana,arial,sans-serif;font-size:16px;}#mermaid-0 .entityBox{fill:#cde498;stroke:#13540c;}#mermaid-0 .attributeBoxOdd{fill:#ffffff;stroke:#13540c;}#mermaid-0 .attributeBoxEven{fill:#f2f2f2;stroke:#13540c;}#mermaid-0 .relationshipLabelBox{fill:hsl(78.1578947368, 58.4615384615%, 84.5098039216%);opacity:0.7;background-color:hsl(78.1578947368, 58.4615384615%, 84.5098039216%);}#mermaid-0 .relationshipLabelBox rect{opacity:0.5;}#mermaid-0 .relationshipLine{stroke:#000000;}#mermaid-0 .entityTitleText{text-anchor:middle;font-size:18px;fill:#000000;}#mermaid-0 :root{--mermaid-font-family:"trebuchet ms",verdana,arial,sans-serif;}</style><g/><defs><marker orient="auto" markerHeight="18" markerWidth="18" refY="9" refX="0" id="ONLY_ONE_START"><path d="M9,0 L9,18 M15,0 L15,18" fill="none" stroke="gray"/></marker></defs><defs><marker orient="auto" markerHeight="18" markerWidth="18" refY="9" refX="18" id="ONLY_ONE_END"><path d="M3,0 L3,18 M9,0 L9,18" fill="none" stroke="gray"/></marker></defs><defs><marker orient="auto" markerHeight="18" markerWidth="30" refY="9" refX="0" id="ZERO_OR_ONE_START"><circle r="6" cy="9" cx="21" fill="white" stroke="gray"/><path d="M9,0 L9,18" fill="none" stroke="gray"/></marker></defs><defs><marker orient="auto" markerHeight="18" markerWidth="30" refY="9" refX="30" id="ZERO_OR_ONE_END"><circle r="6" cy="9" cx="9" fill="white" stroke="gray"/><path d="M21,0 L21,18" fill="none" stroke="gray"/></marker></defs><defs><marker orient="auto" markerHeight="36" markerWidth="45" refY="18" refX="18" id="ONE_OR_MORE_START"><path d="M0,18 Q 18,0 36,18 Q 18,36 0,18 M42,9 L42,27" fill="none" stroke="gray"/></marker></defs><defs><marker orient="auto" markerHeight="36" markerWidth="45" refY="18" refX="27" id="ONE_OR_MORE_END"><path d="M3,9 L3,27 M9,18 Q27,0 45,18 Q27,36 9,18" fill="none" stroke="gray"/></marker></defs><defs><marker orient="auto" markerHeight="36" markerWidth="57" refY="18" refX="18" id="ZERO_OR_MORE_START"><circle r="6" cy="18" cx="48" fill="white" stroke="gray"/><path d="M0,18 Q18,0 36,18 Q18,36 0,18" fill="none" stroke="gray"/></marker></defs><defs><marker orient="auto" markerHeight="36" markerWidth="57" refY="18" refX="39" id="ZERO_OR_MORE_END"><circle r="6" cy="18" cx="9" fill="white" stroke="gray"/><path d="M21,18 Q39,0 57,18 Q39,36 21,18" fill="none" stroke="gray"/></marker></defs><path style="stroke: gray; fill: none;" marker-start="url(#ZERO_OR_MORE_START)" marker-end="url(#ONLY_ONE_END)" d="M104.19579315185547,176L104.19579315185547,184.33333333333334C104.19579315185547,192.66666666666666,104.19579315185547,209.33333333333334,104.19579315185547,226C104.19579315185547,242.66666666666666,104.19579315185547,259.3333333333333,104.19579315185547,267.6666666666667L104.19579315185547,276" class="er relationshipLine"/><g transform="translate(20,276 )" id="entity-transactions-ad881734-337f-4017-8209-17f0618350a0"><rect height="200" width="168.39158630371094" y="0" x="0" class="er entityBox"/><text style="dominant-baseline: middle; text-anchor: middle; font-size: 12px;" transform="translate(84.19579315185547,12)" y="0" x="0" id="text-entity-transactions-ad881734-337f-4017-8209-17f0618350a0" class="er entityLabel">transactions</text><rect height="22" width="37.39605712890625" y="24" x="0" class="er attributeBoxOdd"/><text style="dominant-baseline: middle; font-size: 10.2px;" transform="translate(5,35)" y="0" x="0" id="text-entity-transactions-ad881734-337f-4017-8209-17f0618350a0-attr-1-type" class="er entityLabel">Int</text><rect height="22" width="108.30784606933594" y="24" x="37.39605712890625" class="er attributeBoxOdd"/><text style="dominant-baseline: middle; font-size: 10.2px;" transform="translate(42.39605712890625,35)" y="0" x="0" id="text-entity-transactions-ad881734-337f-4017-8209-17f0618350a0-attr-1-name" class="er entityLabel">id</text><rect height="22" width="22.68768310546875" y="24" x="145.7039031982422" class="er attributeBoxOdd"/><text style="dominant-baseline: middle; font-size: 10.2px;" transform="translate(150.7039031982422,35)" y="0" x="0" id="text-entity-transactions-ad881734-337f-4017-8209-17f0618350a0-attr-1-key" class="er entityLabel">PK</text><rect height="22" width="37.39605712890625" y="46" x="0" class="er attributeBoxEven"/><text style="dominant-baseline: middle; font-size: 10.2px;" transform="translate(5,57)" y="0" x="0" id="text-entity-transactions-ad881734-337f-4017-8209-17f0618350a0-attr-2-type" class="er entityLabel">Float</text><rect height="22" width="108.30784606933594" y="46" x="37.39605712890625" class="er attributeBoxEven"/><text style="dominant-baseline: middle; font-size: 10.2px;" transform="translate(42.39605712890625,57)" y="0" x="0" id="text-entity-transactions-ad881734-337f-4017-8209-17f0618350a0-attr-2-name" class="er entityLabel">value</text><rect height="22" width="22.68768310546875" y="46" x="145.7039031982422" class="er attributeBoxEven"/><text style="dominant-baseline: middle; font-size: 10.2px;" transform="translate(150.7039031982422,57)" y="0" x="0" id="text-entity-transactions-ad881734-337f-4017-8209-17f0618350a0-attr-2-key" class="er entityLabel"/><rect height="22" width="37.39605712890625" y="68" x="0" class="er attributeBoxOdd"/><text style="dominant-baseline: middle; font-size: 10.2px;" transform="translate(5,79)" y="0" x="0" id="text-entity-transactions-ad881734-337f-4017-8209-17f0618350a0-attr-3-type" class="er entityLabel">String</text><rect height="22" width="108.30784606933594" y="68" x="37.39605712890625" class="er attributeBoxOdd"/><text style="dominant-baseline: middle; font-size: 10.2px;" transform="translate(42.39605712890625,79)" y="0" x="0" id="text-entity-transactions-ad881734-337f-4017-8209-17f0618350a0-attr-3-name" class="er entityLabel">desc</text><rect height="22" width="22.68768310546875" y="68" x="145.7039031982422" class="er attributeBoxOdd"/><text style="dominant-baseline: middle; font-size: 10.2px;" transform="translate(150.7039031982422,79)" y="0" x="0" id="text-entity-transactions-ad881734-337f-4017-8209-17f0618350a0-attr-3-key" class="er entityLabel"/><rect height="22" width="37.39605712890625" y="90" x="0" class="er attributeBoxEven"/><text style="dominant-baseline: middle; font-size: 10.2px;" transform="translate(5,101)" y="0" x="0" id="text-entity-transactions-ad881734-337f-4017-8209-17f0618350a0-attr-4-type" class="er entityLabel">Int</text><rect height="22" width="108.30784606933594" y="90" x="37.39605712890625" class="er attributeBoxEven"/><text style="dominant-baseline: middle; font-size: 10.2px;" transform="translate(42.39605712890625,101)" y="0" x="0" id="text-entity-transactions-ad881734-337f-4017-8209-17f0618350a0-attr-4-name" class="er entityLabel">payment_method</text><rect height="22" width="22.68768310546875" y="90" x="145.7039031982422" class="er attributeBoxEven"/><text style="dominant-baseline: middle; font-size: 10.2px;" transform="translate(150.7039031982422,101)" y="0" x="0" id="text-entity-transactions-ad881734-337f-4017-8209-17f0618350a0-attr-4-key" class="er entityLabel"/><rect height="22" width="37.39605712890625" y="112" x="0" class="er attributeBoxOdd"/><text style="dominant-baseline: middle; font-size: 10.2px;" transform="translate(5,123)" y="0" x="0" id="text-entity-transactions-ad881734-337f-4017-8209-17f0618350a0-attr-5-type" class="er entityLabel">String</text><rect height="22" width="108.30784606933594" y="112" x="37.39605712890625" class="er attributeBoxOdd"/><text style="dominant-baseline: middle; font-size: 10.2px;" transform="translate(42.39605712890625,123)" y="0" x="0" id="text-entity-transactions-ad881734-337f-4017-8209-17f0618350a0-attr-5-name" class="er entityLabel">card_number</text><rect height="22" width="22.68768310546875" y="112" x="145.7039031982422" class="er attributeBoxOdd"/><text style="dominant-baseline: middle; font-size: 10.2px;" transform="translate(150.7039031982422,123)" y="0" x="0" id="text-entity-transactions-ad881734-337f-4017-8209-17f0618350a0-attr-5-key" class="er entityLabel"/><rect height="22" width="37.39605712890625" y="134" x="0" class="er attributeBoxEven"/><text style="dominant-baseline: middle; font-size: 10.2px;" transform="translate(5,145)" y="0" x="0" id="text-entity-transactions-ad881734-337f-4017-8209-17f0618350a0-attr-6-type" class="er entityLabel">String</text><rect height="22" width="108.30784606933594" y="134" x="37.39605712890625" class="er attributeBoxEven"/><text style="dominant-baseline: middle; font-size: 10.2px;" transform="translate(42.39605712890625,145)" y="0" x="0" id="text-entity-transactions-ad881734-337f-4017-8209-17f0618350a0-attr-6-name" class="er entityLabel">owner_card</text><rect height="22" width="22.68768310546875" y="134" x="145.7039031982422" class="er attributeBoxEven"/><text style="dominant-baseline: middle; font-size: 10.2px;" transform="translate(150.7039031982422,145)" y="0" x="0" id="text-entity-transactions-ad881734-337f-4017-8209-17f0618350a0-attr-6-key" class="er entityLabel"/><rect height="22" width="37.39605712890625" y="156" x="0" class="er attributeBoxOdd"/><text style="dominant-baseline: middle; font-size: 10.2px;" transform="translate(5,167)" y="0" x="0" id="text-entity-transactions-ad881734-337f-4017-8209-17f0618350a0-attr-7-type" class="er entityLabel">String</text><rect height="22" width="108.30784606933594" y="156" x="37.39605712890625" class="er attributeBoxOdd"/><text style="dominant-baseline: middle; font-size: 10.2px;" transform="translate(42.39605712890625,167)" y="0" x="0" id="text-entity-transactions-ad881734-337f-4017-8209-17f0618350a0-attr-7-name" class="er entityLabel">expiration_date_card</text><rect height="22" width="22.68768310546875" y="156" x="145.7039031982422" class="er attributeBoxOdd"/><text style="dominant-baseline: middle; font-size: 10.2px;" transform="translate(150.7039031982422,167)" y="0" x="0" id="text-entity-transactions-ad881734-337f-4017-8209-17f0618350a0-attr-7-key" class="er entityLabel"/><rect height="22" width="37.39605712890625" y="178" x="0" class="er attributeBoxEven"/><text style="dominant-baseline: middle; font-size: 10.2px;" transform="translate(5,189)" y="0" x="0" id="text-entity-transactions-ad881734-337f-4017-8209-17f0618350a0-attr-8-type" class="er entityLabel">Int</text><rect height="22" width="108.30784606933594" y="178" x="37.39605712890625" class="er attributeBoxEven"/><text style="dominant-baseline: middle; font-size: 10.2px;" transform="translate(42.39605712890625,189)" y="0" x="0" id="text-entity-transactions-ad881734-337f-4017-8209-17f0618350a0-attr-8-name" class="er entityLabel">cvv</text><rect height="22" width="22.68768310546875" y="178" x="145.7039031982422" class="er attributeBoxEven"/><text style="dominant-baseline: middle; font-size: 10.2px;" transform="translate(150.7039031982422,189)" y="0" x="0" id="text-entity-transactions-ad881734-337f-4017-8209-17f0618350a0-attr-8-key" class="er entityLabel"/></g><g transform="translate(27.72716522216797,20 )" id="entity-payables-22c1d9c7-454f-49d1-8c32-39045781fc7e"><rect height="156" width="152.937255859375" y="0" x="0" class="er entityBox"/><text style="dominant-baseline: middle; text-anchor: middle; font-size: 12px;" transform="translate(76.4686279296875,12)" y="0" x="0" id="text-entity-payables-22c1d9c7-454f-49d1-8c32-39045781fc7e" class="er entityLabel">payables</text><rect height="22" width="54.095550537109375" y="24" x="0" class="er attributeBoxOdd"/><text style="dominant-baseline: middle; font-size: 10.2px;" transform="translate(5,35)" y="0" x="0" id="text-entity-payables-22c1d9c7-454f-49d1-8c32-39045781fc7e-attr-1-type" class="er entityLabel">Int</text><rect height="22" width="76.15402221679688" y="24" x="54.095550537109375" class="er attributeBoxOdd"/><text style="dominant-baseline: middle; font-size: 10.2px;" transform="translate(59.095550537109375,35)" y="0" x="0" id="text-entity-payables-22c1d9c7-454f-49d1-8c32-39045781fc7e-attr-1-name" class="er entityLabel">id</text><rect height="22" width="22.68768310546875" y="24" x="130.24957275390625" class="er attributeBoxOdd"/><text style="dominant-baseline: middle; font-size: 10.2px;" transform="translate(135.24957275390625,35)" y="0" x="0" id="text-entity-payables-22c1d9c7-454f-49d1-8c32-39045781fc7e-attr-1-key" class="er entityLabel">PK</text><rect height="22" width="54.095550537109375" y="46" x="0" class="er attributeBoxEven"/><text style="dominant-baseline: middle; font-size: 10.2px;" transform="translate(5,57)" y="0" x="0" id="text-entity-payables-22c1d9c7-454f-49d1-8c32-39045781fc7e-attr-2-type" class="er entityLabel">Int</text><rect height="22" width="76.15402221679688" y="46" x="54.095550537109375" class="er attributeBoxEven"/><text style="dominant-baseline: middle; font-size: 10.2px;" transform="translate(59.095550537109375,57)" y="0" x="0" id="text-entity-payables-22c1d9c7-454f-49d1-8c32-39045781fc7e-attr-2-name" class="er entityLabel">status</text><rect height="22" width="22.68768310546875" y="46" x="130.24957275390625" class="er attributeBoxEven"/><text style="dominant-baseline: middle; font-size: 10.2px;" transform="translate(135.24957275390625,57)" y="0" x="0" id="text-entity-payables-22c1d9c7-454f-49d1-8c32-39045781fc7e-attr-2-key" class="er entityLabel"/><rect height="22" width="54.095550537109375" y="68" x="0" class="er attributeBoxOdd"/><text style="dominant-baseline: middle; font-size: 10.2px;" transform="translate(5,79)" y="0" x="0" id="text-entity-payables-22c1d9c7-454f-49d1-8c32-39045781fc7e-attr-3-type" class="er entityLabel">DateTime</text><rect height="22" width="76.15402221679688" y="68" x="54.095550537109375" class="er attributeBoxOdd"/><text style="dominant-baseline: middle; font-size: 10.2px;" transform="translate(59.095550537109375,79)" y="0" x="0" id="text-entity-payables-22c1d9c7-454f-49d1-8c32-39045781fc7e-attr-3-name" class="er entityLabel">payment_date</text><rect height="22" width="22.68768310546875" y="68" x="130.24957275390625" class="er attributeBoxOdd"/><text style="dominant-baseline: middle; font-size: 10.2px;" transform="translate(135.24957275390625,79)" y="0" x="0" id="text-entity-payables-22c1d9c7-454f-49d1-8c32-39045781fc7e-attr-3-key" class="er entityLabel"/><rect height="22" width="54.095550537109375" y="90" x="0" class="er attributeBoxEven"/><text style="dominant-baseline: middle; font-size: 10.2px;" transform="translate(5,101)" y="0" x="0" id="text-entity-payables-22c1d9c7-454f-49d1-8c32-39045781fc7e-attr-4-type" class="er entityLabel">Float</text><rect height="22" width="76.15402221679688" y="90" x="54.095550537109375" class="er attributeBoxEven"/><text style="dominant-baseline: middle; font-size: 10.2px;" transform="translate(59.095550537109375,101)" y="0" x="0" id="text-entity-payables-22c1d9c7-454f-49d1-8c32-39045781fc7e-attr-4-name" class="er entityLabel">fee</text><rect height="22" width="22.68768310546875" y="90" x="130.24957275390625" class="er attributeBoxEven"/><text style="dominant-baseline: middle; font-size: 10.2px;" transform="translate(135.24957275390625,101)" y="0" x="0" id="text-entity-payables-22c1d9c7-454f-49d1-8c32-39045781fc7e-attr-4-key" class="er entityLabel"/><rect height="22" width="54.095550537109375" y="112" x="0" class="er attributeBoxOdd"/><text style="dominant-baseline: middle; font-size: 10.2px;" transform="translate(5,123)" y="0" x="0" id="text-entity-payables-22c1d9c7-454f-49d1-8c32-39045781fc7e-attr-5-type" class="er entityLabel">Float</text><rect height="22" width="76.15402221679688" y="112" x="54.095550537109375" class="er attributeBoxOdd"/><text style="dominant-baseline: middle; font-size: 10.2px;" transform="translate(59.095550537109375,123)" y="0" x="0" id="text-entity-payables-22c1d9c7-454f-49d1-8c32-39045781fc7e-attr-5-name" class="er entityLabel">total_value</text><rect height="22" width="22.68768310546875" y="112" x="130.24957275390625" class="er attributeBoxOdd"/><text style="dominant-baseline: middle; font-size: 10.2px;" transform="translate(135.24957275390625,123)" y="0" x="0" id="text-entity-payables-22c1d9c7-454f-49d1-8c32-39045781fc7e-attr-5-key" class="er entityLabel"/><rect height="22" width="54.095550537109375" y="134" x="0" class="er attributeBoxEven"/><text style="dominant-baseline: middle; font-size: 10.2px;" transform="translate(5,145)" y="0" x="0" id="text-entity-payables-22c1d9c7-454f-49d1-8c32-39045781fc7e-attr-6-type" class="er entityLabel">Float</text><rect height="22" width="76.15402221679688" y="134" x="54.095550537109375" class="er attributeBoxEven"/><text style="dominant-baseline: middle; font-size: 10.2px;" transform="translate(59.095550537109375,145)" y="0" x="0" id="text-entity-payables-22c1d9c7-454f-49d1-8c32-39045781fc7e-attr-6-name" class="er entityLabel">value</text><rect height="22" width="22.68768310546875" y="134" x="130.24957275390625" class="er attributeBoxEven"/><text style="dominant-baseline: middle; font-size: 10.2px;" transform="translate(135.24957275390625,145)" y="0" x="0" id="text-entity-payables-22c1d9c7-454f-49d1-8c32-39045781fc7e-attr-6-key" class="er entityLabel"/></g><rect height="14" width="61.005859375" y="219" x="73.69286346435547" class="er relationshipLabelBox"/><text style="text-anchor: middle; dominant-baseline: middle; font-size: 12px;" y="226" x="104.19579315185547" id="rel1" class="er relationshipLabel">transaction</text></svg>